<svg xmlns="http://www.w3.org/2000/svg" xmlns:xlink="http://www.w3.org/1999/xlink" width="1920" height="680" viewBox="0 0 1920 680"><defs><style>.a{clip-path:url(#b);}.b,.c,.g{fill:#424242;}.b{font-size:200px;}.b,.c{font-family:SourceHanSansCN-Regular, Source Han Sans CN;letter-spacing:0.02em;}.c{font-size:100px;}.d{fill:none;stroke:#3f7cff;stroke-linecap:round;stroke-linejoin:round;stroke-width:20px;fill-rule:evenodd;}.e{fill:#ffa06a;}.f{fill:#fff9c7;}.g{font-size:64px;font-family:SourceHanSansCN-Light, Source Han Sans CN;font-weight:300;}.h{fill:#fff;}</style><clipPath id="b"><rect width="1920" height="680"/></clipPath></defs><g id="a" class="a"><rect class="h" width="1920" height="680"/><text class="b" transform="translate(841.379 384.513)"><tspan x="0" y="0">H</tspan></text><text class="c" transform="translate(983.379 409.437)"><tspan x="0" y="0">2</tspan></text><text class="b" transform="translate(1076.501 384.513)"><tspan x="0" y="0">OJ</tspan></text><path class="d" d="M131.471,122.09A60.815,60.815,0,1,0,192.287,182.9,60.816,60.816,0,0,0,131.471,122.09Z" transform="translate(522 102)"/><path class="d" d="M192.287,182.9a60.816,60.816,0,0,1-60.816,60.816A60.816,60.816,0,1,0,192.287,182.9Z" transform="translate(522 102)"/><path class="e" d="M135.934,904.02a100,100,0,0,1-100-100V702.5H549.5V904.02Z" transform="translate(1370 -702)"/><path class="f" d="M759.5,369.5V105.02h260.21c146.2,0,264.753,118.354,265.085,264.48Z" transform="translate(-759 310)"/><text class="g" transform="translate(656 510)"><tspan x="0" y="0">2021，我们扬帆起航</tspan></text></g></svg>